<svg width="20" height="20" viewBox="0 0 20 20" fill="none" xmlns="http://www.w3.org/2000/svg">
<g id="Group 427321151">
<g id="Group 427321141">
<path id="Vector" d="M11.8596 2.71073C11.8434 2.27872 11.6591 1.87071 11.3469 1.57568C11.0347 1.28065 10.6199 1.12252 10.1929 1.13576C9.76482 1.12063 9.34824 1.27792 9.03452 1.57315C8.72079 1.86838 8.53552 2.27746 8.5193 2.71073V2.94173C7.32603 3.3893 6.29442 4.19174 5.56002 5.24365C4.82562 6.29555 4.42276 7.5477 4.40439 8.8356V10.9356C4.40439 10.9356 4.40439 14.0925 3.6229 14.0925C3.40216 14.0826 3.18616 14.1593 3.01995 14.3067C2.85374 14.4541 2.75015 14.6607 2.73076 14.8835C2.7279 14.9881 2.74616 15.0923 2.78442 15.1896C2.82268 15.2868 2.88014 15.3752 2.95328 15.4492C3.02643 15.5233 3.11373 15.5814 3.20983 15.6201C3.30594 15.6589 3.40884 15.6773 3.51225 15.6745H16.5624C16.7561 15.6559 16.936 15.565 17.0669 15.4194C17.1979 15.2737 17.2704 15.0839 17.2704 14.887C17.2704 14.6901 17.1979 14.5002 17.0669 14.3546C16.936 14.209 16.7561 14.118 16.5624 14.0995C15.7809 14.0995 15.7809 10.9426 15.7809 10.9426V8.6886C15.8346 7.43221 15.484 6.19212 14.782 5.15458C14.0799 4.11705 13.0641 3.33809 11.8873 2.93473V2.71073H11.8596Z" fill="#FFAE52"/>
<path id="Vector_2" d="M12.6602 16.3838C12.6548 16.7179 12.5861 17.0476 12.4582 17.3538C12.3303 17.6599 12.1457 17.9364 11.9152 18.1672C11.6846 18.398 11.4126 18.5785 11.1149 18.6983C10.8173 18.818 10.4999 18.8747 10.1812 18.8649C9.86199 18.8757 9.54388 18.8198 9.24543 18.7004C8.94698 18.5811 8.67414 18.4008 8.4428 18.1699C8.21147 17.939 8.02625 17.6622 7.89792 17.3555C7.76959 17.0489 7.70072 16.7186 7.69531 16.3838H12.6602Z" fill="#FF5E2B"/>
</g>
</g>
</svg>
